<mxfile host="app.diagrams.net" modified="2021-04-27T16:53:23.131Z" agent="5.0 (X11; Linux x86_64) AppleWebKit/537.36 (KHTML, like Gecko) Chrome/88.0.4324.150 Safari/537.36" etag="lRy2477vnKcy0JSQCGjH" version="14.6.6" type="github">
  <diagram id="lZtI8qbh0fw-rAP5nsD9" name="Page-1">
    <mxGraphModel dx="1483" dy="873" grid="1" gridSize="10" guides="1" tooltips="1" connect="1" arrows="1" fold="1" page="1" pageScale="1" pageWidth="827" pageHeight="1169" math="0" shadow="0">
      <root>
        <mxCell id="0" />
        <mxCell id="1" parent="0" />
        <mxCell id="U7eb7ub3qmSpnm3P4M1d-12" style="edgeStyle=orthogonalEdgeStyle;rounded=1;orthogonalLoop=1;jettySize=auto;html=1;entryX=0.5;entryY=0;entryDx=0;entryDy=0;fontSize=17;dashed=1;dashPattern=1 1;" edge="1" parent="1" source="U7eb7ub3qmSpnm3P4M1d-1" target="U7eb7ub3qmSpnm3P4M1d-9">
          <mxGeometry relative="1" as="geometry" />
        </mxCell>
        <mxCell id="U7eb7ub3qmSpnm3P4M1d-13" style="edgeStyle=orthogonalEdgeStyle;rounded=1;orthogonalLoop=1;jettySize=auto;html=1;entryX=0.5;entryY=0;entryDx=0;entryDy=0;fontSize=17;dashed=1;dashPattern=1 1;" edge="1" parent="1" source="U7eb7ub3qmSpnm3P4M1d-1" target="U7eb7ub3qmSpnm3P4M1d-6">
          <mxGeometry relative="1" as="geometry" />
        </mxCell>
        <mxCell id="U7eb7ub3qmSpnm3P4M1d-19" style="edgeStyle=orthogonalEdgeStyle;rounded=0;orthogonalLoop=1;jettySize=auto;html=1;dashed=1;dashPattern=1 1;fontSize=17;startArrow=none;startFill=0;" edge="1" parent="1" source="U7eb7ub3qmSpnm3P4M1d-1">
          <mxGeometry relative="1" as="geometry">
            <mxPoint x="500" y="120" as="targetPoint" />
          </mxGeometry>
        </mxCell>
        <mxCell id="U7eb7ub3qmSpnm3P4M1d-1" value="Satélite o&lt;br style=&quot;font-size: 16px;&quot;&gt;Reanálisis o&amp;nbsp;&lt;br style=&quot;font-size: 16px;&quot;&gt;Constante" style="rounded=1;whiteSpace=wrap;html=1;fontSize=16;fontStyle=1;fillColor=#e1d5e7;strokeColor=#9673a6;" vertex="1" parent="1">
          <mxGeometry x="440" y="20" width="120" height="70" as="geometry" />
        </mxCell>
        <mxCell id="U7eb7ub3qmSpnm3P4M1d-64" style="edgeStyle=orthogonalEdgeStyle;rounded=1;orthogonalLoop=1;jettySize=auto;html=1;entryX=0.5;entryY=0;entryDx=0;entryDy=0;fontSize=16;startArrow=none;startFill=0;" edge="1" parent="1" source="U7eb7ub3qmSpnm3P4M1d-2" target="U7eb7ub3qmSpnm3P4M1d-21">
          <mxGeometry relative="1" as="geometry" />
        </mxCell>
        <mxCell id="U7eb7ub3qmSpnm3P4M1d-2" value="&lt;font style=&quot;font-size: 25px&quot;&gt;TX&lt;/font&gt;" style="rounded=1;whiteSpace=wrap;html=1;fontSize=17;fontStyle=1;fillColor=#f8cecc;strokeColor=#b85450;" vertex="1" parent="1">
          <mxGeometry x="129" y="140" width="70" height="50" as="geometry" />
        </mxCell>
        <mxCell id="U7eb7ub3qmSpnm3P4M1d-20" style="edgeStyle=orthogonalEdgeStyle;rounded=1;orthogonalLoop=1;jettySize=auto;html=1;entryX=0.5;entryY=0;entryDx=0;entryDy=0;dashed=1;dashPattern=1 1;fontSize=17;startArrow=none;startFill=0;" edge="1" parent="1" source="U7eb7ub3qmSpnm3P4M1d-5" target="U7eb7ub3qmSpnm3P4M1d-6">
          <mxGeometry relative="1" as="geometry">
            <Array as="points">
              <mxPoint x="254" y="120" />
              <mxPoint x="344" y="120" />
            </Array>
          </mxGeometry>
        </mxCell>
        <mxCell id="U7eb7ub3qmSpnm3P4M1d-58" style="edgeStyle=orthogonalEdgeStyle;rounded=1;orthogonalLoop=1;jettySize=auto;html=1;entryX=0.5;entryY=0;entryDx=0;entryDy=0;fontSize=16;startArrow=none;startFill=0;" edge="1" parent="1" source="U7eb7ub3qmSpnm3P4M1d-5" target="U7eb7ub3qmSpnm3P4M1d-21">
          <mxGeometry relative="1" as="geometry" />
        </mxCell>
        <mxCell id="U7eb7ub3qmSpnm3P4M1d-5" value="&lt;font style=&quot;font-size: 25px&quot;&gt;TN&lt;/font&gt;" style="rounded=1;whiteSpace=wrap;html=1;fontSize=17;fontStyle=1;fillColor=#f8cecc;strokeColor=#b85450;" vertex="1" parent="1">
          <mxGeometry x="219" y="140" width="70" height="50" as="geometry" />
        </mxCell>
        <mxCell id="U7eb7ub3qmSpnm3P4M1d-60" style="edgeStyle=orthogonalEdgeStyle;rounded=1;orthogonalLoop=1;jettySize=auto;html=1;entryX=0.5;entryY=0;entryDx=0;entryDy=0;fontSize=16;startArrow=none;startFill=0;dashed=1;dashPattern=1 1;" edge="1" parent="1" source="U7eb7ub3qmSpnm3P4M1d-6" target="U7eb7ub3qmSpnm3P4M1d-21">
          <mxGeometry relative="1" as="geometry" />
        </mxCell>
        <mxCell id="U7eb7ub3qmSpnm3P4M1d-6" value="&lt;font style=&quot;font-size: 25px&quot;&gt;HR&lt;/font&gt;" style="rounded=1;whiteSpace=wrap;html=1;fontSize=17;fontStyle=1;fillColor=#f8cecc;strokeColor=#b85450;" vertex="1" parent="1">
          <mxGeometry x="309" y="140" width="70" height="50" as="geometry" />
        </mxCell>
        <mxCell id="U7eb7ub3qmSpnm3P4M1d-16" style="edgeStyle=orthogonalEdgeStyle;rounded=0;orthogonalLoop=1;jettySize=auto;html=1;entryX=0;entryY=0.5;entryDx=0;entryDy=0;dashed=1;dashPattern=1 1;fontSize=17;startArrow=classic;startFill=1;" edge="1" parent="1" source="U7eb7ub3qmSpnm3P4M1d-7" target="U7eb7ub3qmSpnm3P4M1d-8">
          <mxGeometry relative="1" as="geometry">
            <Array as="points">
              <mxPoint x="510" y="165" />
              <mxPoint x="510" y="165" />
            </Array>
          </mxGeometry>
        </mxCell>
        <mxCell id="U7eb7ub3qmSpnm3P4M1d-18" style="edgeStyle=orthogonalEdgeStyle;rounded=1;orthogonalLoop=1;jettySize=auto;html=1;entryX=0.5;entryY=0;entryDx=0;entryDy=0;dashed=1;dashPattern=1 1;fontSize=17;startArrow=none;startFill=0;" edge="1" parent="1" source="U7eb7ub3qmSpnm3P4M1d-7" target="U7eb7ub3qmSpnm3P4M1d-8">
          <mxGeometry relative="1" as="geometry">
            <Array as="points">
              <mxPoint x="434" y="120" />
              <mxPoint x="574" y="120" />
            </Array>
          </mxGeometry>
        </mxCell>
        <mxCell id="U7eb7ub3qmSpnm3P4M1d-61" style="edgeStyle=orthogonalEdgeStyle;rounded=1;orthogonalLoop=1;jettySize=auto;html=1;entryX=0.5;entryY=0;entryDx=0;entryDy=0;fontSize=16;startArrow=none;startFill=0;dashed=1;dashPattern=1 1;" edge="1" parent="1" source="U7eb7ub3qmSpnm3P4M1d-7" target="U7eb7ub3qmSpnm3P4M1d-21">
          <mxGeometry relative="1" as="geometry" />
        </mxCell>
        <mxCell id="U7eb7ub3qmSpnm3P4M1d-7" value="&lt;font style=&quot;font-size: 25px&quot;&gt;HS&lt;/font&gt;" style="rounded=1;whiteSpace=wrap;html=1;fontSize=17;fontStyle=1;fillColor=#f8cecc;strokeColor=#b85450;" vertex="1" parent="1">
          <mxGeometry x="399" y="140" width="70" height="50" as="geometry" />
        </mxCell>
        <mxCell id="U7eb7ub3qmSpnm3P4M1d-62" style="edgeStyle=orthogonalEdgeStyle;rounded=1;orthogonalLoop=1;jettySize=auto;html=1;entryX=0.5;entryY=0;entryDx=0;entryDy=0;fontSize=16;startArrow=none;startFill=0;dashed=1;dashPattern=1 1;" edge="1" parent="1" source="U7eb7ub3qmSpnm3P4M1d-8" target="U7eb7ub3qmSpnm3P4M1d-21">
          <mxGeometry relative="1" as="geometry" />
        </mxCell>
        <mxCell id="U7eb7ub3qmSpnm3P4M1d-8" value="&lt;font style=&quot;font-size: 25px&quot;&gt;RS&lt;/font&gt;" style="rounded=1;whiteSpace=wrap;html=1;fontSize=17;fontStyle=1;fillColor=#f8cecc;strokeColor=#b85450;" vertex="1" parent="1">
          <mxGeometry x="539" y="140" width="70" height="50" as="geometry" />
        </mxCell>
        <mxCell id="U7eb7ub3qmSpnm3P4M1d-9" value="&lt;font style=&quot;font-size: 25px&quot;&gt;VV&lt;/font&gt;" style="rounded=1;whiteSpace=wrap;html=1;fontSize=17;fontStyle=1;fillColor=#f8cecc;strokeColor=#b85450;" vertex="1" parent="1">
          <mxGeometry x="629" y="140" width="70" height="50" as="geometry" />
        </mxCell>
        <mxCell id="U7eb7ub3qmSpnm3P4M1d-33" style="edgeStyle=orthogonalEdgeStyle;rounded=0;orthogonalLoop=1;jettySize=auto;html=1;entryX=0.5;entryY=0;entryDx=0;entryDy=0;fontSize=17;startArrow=none;startFill=0;" edge="1" parent="1" source="U7eb7ub3qmSpnm3P4M1d-21" target="U7eb7ub3qmSpnm3P4M1d-32">
          <mxGeometry relative="1" as="geometry" />
        </mxCell>
        <mxCell id="U7eb7ub3qmSpnm3P4M1d-21" value="Control de calidad, completación de datos y homogenización" style="shape=parallelogram;perimeter=parallelogramPerimeter;whiteSpace=wrap;html=1;fixedSize=1;fontSize=17;fontStyle=1;fillColor=#dae8fc;strokeColor=#6c8ebf;" vertex="1" parent="1">
          <mxGeometry x="199" y="250" width="440" height="50" as="geometry" />
        </mxCell>
        <mxCell id="U7eb7ub3qmSpnm3P4M1d-32" value="Interpolación climatológicamente asistida" style="shape=parallelogram;perimeter=parallelogramPerimeter;whiteSpace=wrap;html=1;fixedSize=1;fontSize=17;fontStyle=1;fillColor=#dae8fc;strokeColor=#6c8ebf;" vertex="1" parent="1">
          <mxGeometry x="199" y="330" width="440" height="50" as="geometry" />
        </mxCell>
        <mxCell id="U7eb7ub3qmSpnm3P4M1d-43" style="edgeStyle=orthogonalEdgeStyle;rounded=1;orthogonalLoop=1;jettySize=auto;html=1;fontSize=17;startArrow=none;startFill=0;" edge="1" parent="1" source="U7eb7ub3qmSpnm3P4M1d-34">
          <mxGeometry relative="1" as="geometry">
            <mxPoint x="420" y="380" as="targetPoint" />
            <Array as="points">
              <mxPoint x="259" y="400" />
              <mxPoint x="420" y="400" />
            </Array>
          </mxGeometry>
        </mxCell>
        <mxCell id="U7eb7ub3qmSpnm3P4M1d-53" style="edgeStyle=orthogonalEdgeStyle;rounded=1;orthogonalLoop=1;jettySize=auto;html=1;entryX=0.5;entryY=0;entryDx=0;entryDy=0;fontSize=16;startArrow=none;startFill=0;" edge="1" parent="1" source="U7eb7ub3qmSpnm3P4M1d-34" target="U7eb7ub3qmSpnm3P4M1d-46">
          <mxGeometry relative="1" as="geometry">
            <Array as="points">
              <mxPoint x="259" y="460" />
              <mxPoint x="419" y="460" />
            </Array>
          </mxGeometry>
        </mxCell>
        <mxCell id="U7eb7ub3qmSpnm3P4M1d-34" value="&lt;font style=&quot;font-size: 16px;&quot;&gt;ELV&lt;/font&gt;" style="rounded=1;whiteSpace=wrap;html=1;fontSize=16;fontStyle=1;fillColor=#f5f5f5;strokeColor=#666666;fontColor=#333333;" vertex="1" parent="1">
          <mxGeometry x="229" y="410" width="60" height="40" as="geometry" />
        </mxCell>
        <mxCell id="U7eb7ub3qmSpnm3P4M1d-42" style="edgeStyle=orthogonalEdgeStyle;rounded=1;orthogonalLoop=1;jettySize=auto;html=1;entryX=0.5;entryY=1;entryDx=0;entryDy=0;fontSize=17;startArrow=none;startFill=0;" edge="1" parent="1" source="U7eb7ub3qmSpnm3P4M1d-35" target="U7eb7ub3qmSpnm3P4M1d-32">
          <mxGeometry relative="1" as="geometry">
            <Array as="points">
              <mxPoint x="338" y="400" />
              <mxPoint x="419" y="400" />
            </Array>
          </mxGeometry>
        </mxCell>
        <mxCell id="U7eb7ub3qmSpnm3P4M1d-52" style="edgeStyle=orthogonalEdgeStyle;rounded=1;orthogonalLoop=1;jettySize=auto;html=1;entryX=0.5;entryY=0;entryDx=0;entryDy=0;fontSize=16;startArrow=none;startFill=0;" edge="1" parent="1" source="U7eb7ub3qmSpnm3P4M1d-35" target="U7eb7ub3qmSpnm3P4M1d-46">
          <mxGeometry relative="1" as="geometry">
            <Array as="points">
              <mxPoint x="338" y="460" />
              <mxPoint x="419" y="460" />
            </Array>
          </mxGeometry>
        </mxCell>
        <mxCell id="U7eb7ub3qmSpnm3P4M1d-35" value="&lt;font style=&quot;font-size: 16px;&quot;&gt;CN&lt;/font&gt;" style="rounded=1;whiteSpace=wrap;html=1;fontSize=16;fontStyle=1;fillColor=#f5f5f5;strokeColor=#666666;fontColor=#333333;" vertex="1" parent="1">
          <mxGeometry x="308" y="410" width="60" height="40" as="geometry" />
        </mxCell>
        <mxCell id="U7eb7ub3qmSpnm3P4M1d-41" style="edgeStyle=orthogonalEdgeStyle;rounded=1;orthogonalLoop=1;jettySize=auto;html=1;entryX=0.5;entryY=1;entryDx=0;entryDy=0;fontSize=17;startArrow=none;startFill=0;" edge="1" parent="1" source="U7eb7ub3qmSpnm3P4M1d-38" target="U7eb7ub3qmSpnm3P4M1d-32">
          <mxGeometry relative="1" as="geometry" />
        </mxCell>
        <mxCell id="U7eb7ub3qmSpnm3P4M1d-51" style="edgeStyle=orthogonalEdgeStyle;rounded=1;orthogonalLoop=1;jettySize=auto;html=1;entryX=0.5;entryY=0;entryDx=0;entryDy=0;fontSize=16;startArrow=none;startFill=0;" edge="1" parent="1" source="U7eb7ub3qmSpnm3P4M1d-38" target="U7eb7ub3qmSpnm3P4M1d-46">
          <mxGeometry relative="1" as="geometry" />
        </mxCell>
        <mxCell id="U7eb7ub3qmSpnm3P4M1d-38" value="&lt;font style=&quot;font-size: 16px;&quot;&gt;LST&lt;/font&gt;" style="rounded=1;whiteSpace=wrap;html=1;fontSize=16;fontStyle=1;fillColor=#f5f5f5;strokeColor=#666666;fontColor=#333333;" vertex="1" parent="1">
          <mxGeometry x="389" y="410" width="60" height="40" as="geometry" />
        </mxCell>
        <mxCell id="U7eb7ub3qmSpnm3P4M1d-44" style="edgeStyle=orthogonalEdgeStyle;rounded=1;orthogonalLoop=1;jettySize=auto;html=1;fontSize=17;startArrow=none;startFill=0;" edge="1" parent="1" source="U7eb7ub3qmSpnm3P4M1d-39">
          <mxGeometry relative="1" as="geometry">
            <mxPoint x="420" y="380" as="targetPoint" />
            <Array as="points">
              <mxPoint x="499" y="400" />
              <mxPoint x="420" y="400" />
            </Array>
          </mxGeometry>
        </mxCell>
        <mxCell id="U7eb7ub3qmSpnm3P4M1d-54" style="edgeStyle=orthogonalEdgeStyle;rounded=1;orthogonalLoop=1;jettySize=auto;html=1;entryX=0.5;entryY=0;entryDx=0;entryDy=0;fontSize=16;startArrow=none;startFill=0;" edge="1" parent="1" source="U7eb7ub3qmSpnm3P4M1d-39" target="U7eb7ub3qmSpnm3P4M1d-46">
          <mxGeometry relative="1" as="geometry">
            <Array as="points">
              <mxPoint x="499" y="460" />
              <mxPoint x="419" y="460" />
            </Array>
          </mxGeometry>
        </mxCell>
        <mxCell id="U7eb7ub3qmSpnm3P4M1d-39" value="&lt;font style=&quot;font-size: 16px;&quot;&gt;LAT&lt;/font&gt;" style="rounded=1;whiteSpace=wrap;html=1;fontSize=16;fontStyle=1;fillColor=#f5f5f5;strokeColor=#666666;fontColor=#333333;" vertex="1" parent="1">
          <mxGeometry x="469" y="410" width="60" height="40" as="geometry" />
        </mxCell>
        <mxCell id="U7eb7ub3qmSpnm3P4M1d-45" style="edgeStyle=orthogonalEdgeStyle;rounded=1;orthogonalLoop=1;jettySize=auto;html=1;fontSize=17;startArrow=none;startFill=0;" edge="1" parent="1" source="U7eb7ub3qmSpnm3P4M1d-40">
          <mxGeometry relative="1" as="geometry">
            <mxPoint x="420" y="380" as="targetPoint" />
            <Array as="points">
              <mxPoint x="579" y="400" />
              <mxPoint x="420" y="400" />
            </Array>
          </mxGeometry>
        </mxCell>
        <mxCell id="U7eb7ub3qmSpnm3P4M1d-55" style="edgeStyle=orthogonalEdgeStyle;rounded=1;orthogonalLoop=1;jettySize=auto;html=1;entryX=0.5;entryY=0;entryDx=0;entryDy=0;fontSize=16;startArrow=none;startFill=0;" edge="1" parent="1" source="U7eb7ub3qmSpnm3P4M1d-40" target="U7eb7ub3qmSpnm3P4M1d-46">
          <mxGeometry relative="1" as="geometry">
            <Array as="points">
              <mxPoint x="579" y="460" />
              <mxPoint x="419" y="460" />
            </Array>
          </mxGeometry>
        </mxCell>
        <mxCell id="U7eb7ub3qmSpnm3P4M1d-40" value="&lt;span style=&quot;font-size: 16px;&quot;&gt;LON&lt;/span&gt;" style="rounded=1;whiteSpace=wrap;html=1;fontSize=16;fontStyle=1;fillColor=#f5f5f5;strokeColor=#666666;fontColor=#333333;" vertex="1" parent="1">
          <mxGeometry x="549" y="410" width="60" height="40" as="geometry" />
        </mxCell>
        <mxCell id="U7eb7ub3qmSpnm3P4M1d-57" style="edgeStyle=orthogonalEdgeStyle;rounded=0;orthogonalLoop=1;jettySize=auto;html=1;entryX=0.5;entryY=0;entryDx=0;entryDy=0;fontSize=16;startArrow=none;startFill=0;" edge="1" parent="1" source="U7eb7ub3qmSpnm3P4M1d-46" target="U7eb7ub3qmSpnm3P4M1d-56">
          <mxGeometry relative="1" as="geometry" />
        </mxCell>
        <mxCell id="U7eb7ub3qmSpnm3P4M1d-46" value="Ecuación FPM" style="shape=parallelogram;perimeter=parallelogramPerimeter;whiteSpace=wrap;html=1;fixedSize=1;fontSize=19;fontStyle=1;fillColor=#dae8fc;strokeColor=#6c8ebf;" vertex="1" parent="1">
          <mxGeometry x="314" y="480" width="210" height="50" as="geometry" />
        </mxCell>
        <mxCell id="U7eb7ub3qmSpnm3P4M1d-56" value="&lt;font style=&quot;font-size: 25px&quot;&gt;Eo&lt;/font&gt;" style="rounded=1;whiteSpace=wrap;html=1;fontSize=17;fontStyle=1;fillColor=#f5f5f5;strokeColor=#666666;fontColor=#333333;" vertex="1" parent="1">
          <mxGeometry x="384" y="559.5" width="70" height="50" as="geometry" />
        </mxCell>
        <mxCell id="U7eb7ub3qmSpnm3P4M1d-84" value="" style="group" vertex="1" connectable="0" parent="1">
          <mxGeometry x="600" y="490" width="173.5" height="110.5" as="geometry" />
        </mxCell>
        <mxCell id="U7eb7ub3qmSpnm3P4M1d-66" value="" style="rounded=1;whiteSpace=wrap;html=1;fontSize=16;fontStyle=1;fillColor=#f8cecc;strokeColor=#b85450;" vertex="1" parent="U7eb7ub3qmSpnm3P4M1d-84">
          <mxGeometry y="25.5" width="41" height="20" as="geometry" />
        </mxCell>
        <mxCell id="U7eb7ub3qmSpnm3P4M1d-67" value="" style="rounded=1;whiteSpace=wrap;html=1;fontSize=16;fontStyle=1;fillColor=#dae8fc;strokeColor=#6c8ebf;" vertex="1" parent="U7eb7ub3qmSpnm3P4M1d-84">
          <mxGeometry y="50" width="41" height="20.5" as="geometry" />
        </mxCell>
        <mxCell id="U7eb7ub3qmSpnm3P4M1d-69" value="Dato Grillado" style="text;html=1;strokeColor=none;fillColor=none;align=center;verticalAlign=middle;whiteSpace=wrap;rounded=0;fontSize=16;" vertex="1" parent="U7eb7ub3qmSpnm3P4M1d-84">
          <mxGeometry x="48" y="0.5" width="100" height="20" as="geometry" />
        </mxCell>
        <mxCell id="U7eb7ub3qmSpnm3P4M1d-72" value="Dato Observado" style="text;html=1;strokeColor=none;fillColor=none;align=center;verticalAlign=middle;whiteSpace=wrap;rounded=0;fontSize=16;" vertex="1" parent="U7eb7ub3qmSpnm3P4M1d-84">
          <mxGeometry x="49" y="25.5" width="120" height="20" as="geometry" />
        </mxCell>
        <mxCell id="U7eb7ub3qmSpnm3P4M1d-73" value="Proceso&amp;nbsp; &amp;nbsp; &amp;nbsp; &amp;nbsp; &amp;nbsp; &amp;nbsp; &amp;nbsp;" style="text;html=1;strokeColor=none;fillColor=none;align=center;verticalAlign=middle;whiteSpace=wrap;rounded=0;fontSize=16;" vertex="1" parent="U7eb7ub3qmSpnm3P4M1d-84">
          <mxGeometry x="49" y="50" width="121" height="20" as="geometry" />
        </mxCell>
        <mxCell id="U7eb7ub3qmSpnm3P4M1d-75" value="" style="endArrow=none;dashed=1;html=1;dashPattern=1 3;strokeWidth=2;fontSize=16;" edge="1" parent="U7eb7ub3qmSpnm3P4M1d-84">
          <mxGeometry width="50" height="50" relative="1" as="geometry">
            <mxPoint x="2" y="80.38" as="sourcePoint" />
            <mxPoint x="41" y="80.38" as="targetPoint" />
          </mxGeometry>
        </mxCell>
        <mxCell id="U7eb7ub3qmSpnm3P4M1d-76" value="" style="endArrow=none;html=1;strokeWidth=2;fontSize=16;rounded=0;" edge="1" parent="U7eb7ub3qmSpnm3P4M1d-84">
          <mxGeometry width="50" height="50" relative="1" as="geometry">
            <mxPoint x="2" y="100.29999999999995" as="sourcePoint" />
            <mxPoint x="41" y="100.29999999999995" as="targetPoint" />
          </mxGeometry>
        </mxCell>
        <mxCell id="U7eb7ub3qmSpnm3P4M1d-79" value="Flujo a evaluar" style="text;html=1;strokeColor=none;fillColor=none;align=center;verticalAlign=middle;whiteSpace=wrap;rounded=0;fontSize=16;" vertex="1" parent="U7eb7ub3qmSpnm3P4M1d-84">
          <mxGeometry x="48" y="70.5" width="110" height="20" as="geometry" />
        </mxCell>
        <mxCell id="U7eb7ub3qmSpnm3P4M1d-80" value="Flujo confirmado" style="text;html=1;strokeColor=none;fillColor=none;align=center;verticalAlign=middle;whiteSpace=wrap;rounded=0;fontSize=16;" vertex="1" parent="U7eb7ub3qmSpnm3P4M1d-84">
          <mxGeometry x="44.5" y="90.5" width="129" height="20" as="geometry" />
        </mxCell>
        <mxCell id="U7eb7ub3qmSpnm3P4M1d-83" value="" style="rounded=1;whiteSpace=wrap;html=1;fontSize=16;fontStyle=1;fillColor=#f5f5f5;strokeColor=#666666;fontColor=#333333;" vertex="1" parent="U7eb7ub3qmSpnm3P4M1d-84">
          <mxGeometry width="41" height="20.5" as="geometry" />
        </mxCell>
      </root>
    </mxGraphModel>
  </diagram>
</mxfile>
